<svg width="450" height="332" viewBox="0 0 450 332" fill="none" xmlns="http://www.w3.org/2000/svg">
<path fill-rule="evenodd" clip-rule="evenodd" d="M294.767 230.72V252.862C294.767 296.355 259.509 331.612 216.017 331.612H78.75C35.2576 331.612 0 296.355 0 252.862V230.72C0 211.149 15.8659 195.283 35.4375 195.283H110.543C114.663 195.283 118.618 196.897 121.561 199.778L131.29 209.302C135.062 212.994 139.544 216.253 144.794 216.799C146.29 216.954 147.746 216.954 149.261 216.796C154.531 216.244 159.034 212.986 162.821 209.28L172.527 199.778C175.47 196.897 179.425 195.283 183.545 195.283H259.329C278.901 195.283 294.767 211.149 294.767 230.72ZM136.371 230.253C136.979 228.072 139.289 226.887 141.486 227.436C145.738 228.498 149.174 228.515 153.549 227.427C155.744 226.882 158.052 228.068 158.659 230.247L170.825 273.915C171.906 277.798 170.789 281.961 167.909 284.78L155.249 297.174C150.952 301.381 144.081 301.381 139.784 297.174L127.123 284.78C124.243 281.961 123.126 277.798 124.208 273.915L136.371 230.253Z" fill="black"/>
<path d="M228.444 81.0608C228.444 125.829 192.152 162.122 147.383 162.122C102.615 162.122 66.3225 125.829 66.3225 81.0608C66.3225 36.2922 102.615 0 147.383 0C192.152 0 228.444 36.2922 228.444 81.0608Z" fill="black"/>
<path d="M399.281 106.906C399.281 141.142 371.528 168.896 337.292 168.896C303.056 168.896 275.303 141.142 275.303 106.906C275.303 72.6704 303.056 44.9168 337.292 44.9168C371.528 44.9168 399.281 72.6704 399.281 106.906Z" fill="black"/>
<path fill-rule="evenodd" clip-rule="evenodd" d="M296.925 298.51H389.778C423.038 298.51 450 271.547 450 238.288V221.355C450 206.388 437.867 194.255 422.9 194.255H364.946C361.796 194.255 358.771 195.489 356.52 197.692L349.098 204.959C346.202 207.793 342.758 210.284 338.728 210.706C337.569 210.827 336.456 210.827 335.312 210.709C331.297 210.292 327.869 207.799 324.985 204.976L317.545 197.692C315.294 195.489 312.27 194.255 309.12 194.255H292.101C302.218 201.551 308.803 213.439 308.803 226.865V256.342C308.803 271.797 304.459 286.238 296.925 298.51ZM328.871 220.998C329.336 219.33 331.103 218.424 332.783 218.843C336.034 219.656 338.661 219.668 342.008 218.836C343.686 218.419 345.451 219.326 345.915 220.992L355.218 254.387C356.046 257.356 355.191 260.54 352.989 262.696L343.307 272.174C340.021 275.391 334.766 275.391 331.48 272.174L321.799 262.696C319.596 260.54 318.742 257.356 319.569 254.387L328.871 220.998Z" fill="black"/>
</svg>
