<svg width="450" height="450" viewBox="0 0 450 450" fill="none" xmlns="http://www.w3.org/2000/svg">
<path d="M225 450C349.264 450 450 349.264 450 225C450 100.736 349.264 0 225 0C100.736 0 0 100.736 0 225C0 349.264 100.736 450 225 450Z" fill="#FCB425"/>
<path d="M171.62 293.762H129.944V276.797C125.713 282.109 115.757 287.523 111.436 289.954C103.873 294.186 93.604 296.941 83.9709 296.941C68.3958 296.941 54.5313 292.02 42.3773 281.307C27.8826 268.523 21.0718 248.978 21.0718 227.911C21.0718 206.484 28.4992 189.379 43.354 176.594C55.1479 166.421 69.5704 158.279 84.8753 158.279C93.7883 158.279 104.78 159.078 112.613 162.859C117.114 165.02 125.173 170.104 129.944 175.056V85.6879H171.62V293.762ZM129.011 228.046C129.011 220.124 126.837 210.638 121.255 205.147C115.673 199.565 105.526 194.613 97.6031 194.613C88.7803 194.613 80.6069 201.031 74.9351 207.693C70.3436 213.095 68.0478 221.423 68.0478 228.355C68.0478 235.287 70.6522 242.998 75.2437 248.399C80.8255 255.061 86.8382 259.627 95.7511 259.627C103.764 259.627 113.294 256.264 118.786 250.772C124.368 245.28 129.011 236.059 129.011 228.046Z" fill="#231F20"/>
<path d="M367.128 86.5474C360.196 86.5474 354.299 88.9781 349.437 93.8397C344.666 98.6113 342.28 104.463 342.28 111.395C342.28 118.328 344.666 124.225 349.437 129.086C354.299 133.948 360.196 136.379 367.128 136.379C374.15 136.379 380.047 133.993 384.819 129.221C389.68 124.36 392.111 118.418 392.111 111.395C392.111 104.463 389.68 98.6113 384.819 93.8397C379.957 88.9781 374.06 86.5474 367.128 86.5474ZM257.411 156.473C231.663 156.473 211.811 164.499 197.857 180.551C186.333 193.849 180.571 209.092 180.571 226.284C180.571 245.376 186.288 261.475 197.722 274.583C211.586 290.54 231.033 298.519 256.061 298.519C280.999 298.519 300.4 290.54 314.265 274.583C325.699 261.475 331.415 245.757 331.415 227.425C331.415 209.284 325.654 193.659 314.13 180.551C299.995 164.499 281.089 156.473 257.411 156.473ZM344.981 161.348V293.658H389.275V161.348H344.981ZM256.061 196.791C264.164 196.791 271.051 199.787 276.723 205.771C282.484 211.66 285.365 218.877 285.365 227.425C285.365 236.069 282.529 243.379 276.858 249.363C271.186 255.252 264.254 258.202 256.061 258.202C246.878 258.202 239.405 254.59 233.644 247.371C228.962 241.577 226.621 234.929 226.621 227.425C226.621 220.017 228.962 213.415 233.644 207.621C239.405 200.402 246.878 196.791 256.061 196.791Z" fill="white"/>
</svg>
