<svg width="340" height="450" viewBox="0 0 340 450" fill="none" xmlns="http://www.w3.org/2000/svg">
<path d="M44.5762 45.4896L42.6803 45.5901C17.8623 46.9055 -1.21402 68.0921 0.0721392 92.9116L16.3679 407.378C17.6541 432.197 38.8156 451.251 63.6336 449.936L253.608 439.867C268.374 439.084 281.107 431.268 288.729 419.837H103.648C71.0236 419.837 44.5762 393.088 44.5762 360.091V45.4896Z" fill="black"/>
<path fill-rule="evenodd" clip-rule="evenodd" d="M104.778 0C79.9248 0 59.7776 20.1472 59.7776 45V359.901C59.7776 384.753 79.9248 404.901 104.778 404.901H295.01C319.863 404.901 340.01 384.753 340.01 359.901V45C340.01 20.1472 319.863 0 295.01 0H104.778ZM108.02 146.346C103.878 146.346 100.52 149.704 100.52 153.846C100.52 157.988 103.878 161.346 108.02 161.346H291.143C295.285 161.346 298.643 157.988 298.643 153.846C298.643 149.704 295.285 146.346 291.143 146.346H108.02ZM100.52 233.508C100.52 229.366 103.878 226.008 108.02 226.008H235.861C240.003 226.008 243.361 229.366 243.361 233.508C243.361 237.65 240.003 241.008 235.861 241.008H108.02C103.878 241.008 100.52 237.65 100.52 233.508ZM108.02 305.669C103.878 305.669 100.52 309.027 100.52 313.169C100.52 317.311 103.878 320.669 108.02 320.669H199.582C203.724 320.669 207.082 317.311 207.082 313.169C207.082 309.027 203.724 305.669 199.582 305.669H108.02Z" fill="black"/>
</svg>
