<svg width="458" height="450" viewBox="0 0 458 450" fill="none" xmlns="http://www.w3.org/2000/svg">
<path fill-rule="evenodd" clip-rule="evenodd" d="M333 450C402.035 450 458 394.036 458 325C458 255.964 402.035 200 333 200C263.964 200 208 255.964 208 325C208 394.036 263.964 450 333 450ZM343.347 269C343.347 263.477 338.87 259 333.347 259C327.824 259 323.347 263.477 323.347 269V357.713L289.946 325.463C285.973 321.627 279.642 321.738 275.806 325.711C271.97 329.685 272.081 336.015 276.054 339.851L326.401 388.463C330.276 392.204 336.418 392.204 340.293 388.463L390.64 339.851C394.613 336.015 394.724 329.685 390.888 325.711C387.052 321.738 380.722 321.627 376.748 325.463L343.347 357.713V269Z" fill="black"/>
<path d="M60.9999 35C60.9999 15.67 76.6699 0 95.9999 0H291.375C301.605 0 311.322 4.47527 317.972 12.2487L402.596 111.176C408.02 117.516 411 125.585 411 133.928V184.944C411 192.847 402.168 197.751 395.029 194.362C376.205 185.427 355.151 180.429 332.929 180.429C252.847 180.429 187.929 245.347 187.929 325.429C187.929 365.362 204.072 401.525 230.188 427.748C237.352 434.942 232.588 450 222.436 450H95.9999C76.6699 450 60.9999 434.33 60.9999 415V218C60.9999 212.477 65.477 208 70.9999 208H187.712C207.042 208 222.712 192.33 222.712 173V110C222.712 90.67 207.042 75 187.712 75H70.9999C65.477 75 60.9999 70.5229 60.9999 65V35Z" fill="black"/>
<path fill-rule="evenodd" clip-rule="evenodd" d="M0.5 110C0.5 86.5279 19.5279 67.5 43 67.5H187.712C211.185 67.5 230.212 86.5279 230.212 110V173C230.212 196.472 211.185 215.5 187.712 215.5H43C19.5279 215.5 0.5 196.472 0.5 173V110ZM43 82.5C27.8122 82.5 15.5 94.8121 15.5 110V173C15.5 188.188 27.8122 200.5 43 200.5H187.712C202.9 200.5 215.212 188.188 215.212 173V110C215.212 94.8121 202.9 82.5 187.712 82.5H43Z" fill="black"/>
<path fill-rule="evenodd" clip-rule="evenodd" d="M46.5718 114.987C46.5718 110.845 49.9296 107.487 54.0718 107.487H67.3718C72.8883 107.487 78.1788 109.678 82.0796 113.579C85.9804 117.48 88.1718 122.77 88.1718 128.287C88.1718 133.803 85.9804 139.094 82.0796 142.995C78.1788 146.895 72.8883 149.087 67.3718 149.087H61.5718V168.187C61.5718 172.329 58.2139 175.687 54.0718 175.687C49.9296 175.687 46.5718 172.329 46.5718 168.187V114.987ZM61.5718 134.087H67.3718C68.91 134.087 70.3853 133.476 71.473 132.388C72.5607 131.3 73.1718 129.825 73.1718 128.287C73.1718 126.749 72.5607 125.273 71.473 124.186C70.3853 123.098 68.91 122.487 67.3718 122.487H61.5718V134.087ZM94.8603 114.987C94.8603 110.845 98.2182 107.487 102.36 107.487H115.66C121.177 107.487 126.467 109.678 130.368 113.579C134.269 117.48 136.46 122.77 136.46 128.287V154.887C136.46 160.403 134.269 165.694 130.368 169.595C126.467 173.495 121.177 175.687 115.66 175.687H102.36C98.2182 175.687 94.8603 172.329 94.8603 168.187V114.987ZM109.86 122.487V160.687H115.66C117.199 160.687 118.674 160.076 119.762 158.988C120.849 157.9 121.46 156.425 121.46 154.887V128.287C121.46 126.749 120.849 125.273 119.762 124.186C118.674 123.098 117.199 122.487 115.66 122.487H109.86ZM143.149 114.987C143.149 110.845 146.507 107.487 150.649 107.487H177.249C181.391 107.487 184.749 110.845 184.749 114.987C184.749 119.129 181.391 122.487 177.249 122.487H158.149V134.087H170.599C174.741 134.087 178.099 137.445 178.099 141.587C178.099 145.729 174.741 149.087 170.599 149.087H158.149V168.187C158.149 172.329 154.791 175.687 150.649 175.687C146.507 175.687 143.149 172.329 143.149 168.187V114.987Z" fill="black"/>
</svg>
