<svg width="450" height="250" viewBox="0 0 450 250" fill="none" xmlns="http://www.w3.org/2000/svg">
<path fill-rule="evenodd" clip-rule="evenodd" d="M2.36411 118.929C24.7354 93.8955 115.917 0 225 0C334.083 0 425.265 93.8955 447.636 118.929C450.788 122.456 450.788 127.544 447.636 131.071C425.265 156.104 334.083 250 225 250C115.917 250 24.7354 156.105 2.36411 131.071C-0.788035 127.544 -0.788035 122.456 2.36411 118.929ZM311.409 125.157C311.409 172.187 272.793 210.313 225.159 210.313C177.524 210.313 138.908 172.187 138.908 125.157C138.908 78.1259 177.524 40 225.159 40C232.738 40 240.089 40.9652 247.092 42.778C252.157 44.089 252.53 51.128 248.941 54.8919C243.014 61.1065 239.382 69.4785 239.382 78.688C239.382 97.8633 255.127 113.408 274.548 113.408C283.267 113.408 291.244 110.276 297.389 105.088C301.369 101.728 308.471 102.436 309.551 107.495C310.769 113.193 311.409 119.101 311.409 125.157Z" fill="black"/>
</svg>
